<?xml version="1.0" standalone="no"?>
<!DOCTYPE svg PUBLIC "-//W3C//DTD SVG 1.1//EN" "http://www.w3.org/Graphics/SVG/1.1/DTD/svg11.dtd">
<svg class="icon" viewBox="0 0 40 40" version="1.1" xmlns="http://www.w3.org/2000/svg" width="40" height="40">
    <defs>
        <linearGradient id="warmGradient" x1="0%" y1="0%" x2="100%" y2="100%">
            <stop offset="0%" style="stop-color:#FF6B6B;stop-opacity:1"/>
            <stop offset="50%" style="stop-color:#FF8C42;stop-opacity:1"/>
            <stop offset="100%" style="stop-color:#FFB347;stop-opacity:1"/>
        </linearGradient>
        <linearGradient id="greenGradient" x1="0%" y1="0%" x2="100%" y2="100%">
            <stop offset="0%" style="stop-color:#065F46;stop-opacity:1"/>
            <stop offset="50%" style="stop-color:#047857;stop-opacity:1"/>
            <stop offset="100%" style="stop-color:#10B981;stop-opacity:1"/>
        </linearGradient>
        <radialGradient id="dotGradient" cx="50%" cy="50%" r="50%">
            <stop offset="0%" style="stop-color:#4ADE80;stop-opacity:1"/>
            <stop offset="70%" style="stop-color:#22C55E;stop-opacity:1"/>
            <stop offset="100%" style="stop-color:#16A34A;stop-opacity:1"/>
        </radialGradient>
    </defs>

    <g transform="translate(4, 4) scale(0.03125)">
        <!-- 深绿色渐变六边形背景 -->
        <path d="M548.235636 13.312l362.053819 209.035636a93.090909 93.090909 0 0 1 46.545454 80.616728v418.071272a93.090909 93.090909 0 0 1-46.545454 80.616728l-362.053819 209.035636a93.090909 93.090909 0 0 1-93.090909 0L93.090909 801.652364a93.090909 93.090909 0 0 1-46.545454-80.616728V302.964364a93.090909 93.090909 0 0 1 46.545454-80.616728L455.144727 13.312a93.090909 93.090909 0 0 1 93.090909 0z"
              fill="url(#greenGradient)"/>
        <!-- 白色 "N" 字母 -->
        <path fill="#FFFFFF"
              d="M345.05 724 L345.05 300 L402.6 300 L625.1 632.6 L625.1 300 L678.7 300 L678.7 724 L621.4 724 L398.8 390.8 L398.8 724 L345.05 724 Z"/>
    </g>

    <circle cx="33" cy="29" r="3.0"
            fill="url(#dotGradient)" stroke="#FFFFFF" stroke-width="0.3"/>
</svg>